<svg width="208" height="59" viewBox="0 0 208 59" fill="none" xmlns="http://www.w3.org/2000/svg">
<path d="M30.4432 0C26.5692 0 22.7331 0.763123 19.1539 2.24554C15.5748 3.72813 12.3229 5.90101 9.58347 8.6403C6.84419 11.3797 4.6713 14.6317 3.18872 18.2108C1.7063 21.7899 0.943176 25.6261 0.943176 29.5C0.943176 33.3739 1.7063 37.2101 3.18872 40.7892C4.6713 44.3683 6.84419 47.6203 9.58347 50.3597C12.3229 53.099 15.5748 55.2719 19.1539 56.7545C22.7331 58.2369 26.5692 59 30.4432 59V44.25C28.5061 44.25 26.5881 43.8685 24.7986 43.1271C23.009 42.3859 21.383 41.2995 20.0133 39.9298C18.6437 38.5602 17.5572 36.9342 16.816 35.1446C16.0747 33.3551 15.6932 31.4371 15.6932 29.5C15.6932 27.5629 16.0747 25.6449 16.816 23.8554C17.5572 22.0658 18.6437 20.4398 20.0133 19.0702C21.383 17.7005 23.009 16.6141 24.7986 15.8729C26.5881 15.1315 28.5061 14.75 30.4432 14.75V0Z" fill="#0F52FF"/>
<path d="M30.4435 39.3334C35.8743 39.3334 40.2768 34.9309 40.2768 29.5001C40.2768 24.0693 35.8743 19.6667 30.4435 19.6667C25.0127 19.6667 20.6102 24.0693 20.6102 29.5001C20.6102 34.9309 25.0127 39.3334 30.4435 39.3334Z" fill="#0F52FF"/>
<path d="M0.943176 29.5C0.943176 33.3739 1.7063 37.2101 3.18872 40.7892C4.6713 44.3683 6.84419 47.6203 9.58347 50.3597C12.3229 53.099 15.5748 55.2719 19.1539 56.7545C22.7331 58.2369 26.5692 59 30.4432 59C34.3171 59 38.1533 58.2369 41.7324 56.7545C45.3115 55.2719 48.5634 53.099 51.3029 50.3597C54.0422 47.6203 56.215 44.3683 57.6976 40.7892C59.1801 37.2101 59.9432 33.3739 59.9432 29.5H45.1932C45.1932 31.4371 44.8117 33.3551 44.0703 35.1446C43.3291 36.9342 42.2427 38.5602 40.873 39.9298C39.5034 41.2995 37.8773 42.3859 36.0878 43.1271C34.2982 43.8685 32.3802 44.25 30.4432 44.25C28.5061 44.25 26.5881 43.8685 24.7986 43.1271C23.009 42.3859 21.383 41.2995 20.0133 39.9298C18.6437 38.5602 17.5572 36.9342 16.816 35.1446C16.0747 33.3551 15.6932 31.4371 15.6932 29.5H0.943176Z" fill="#5BD0F4"/>
<path d="M40.2769 29.5002C40.2769 26.8922 39.2409 24.3911 37.3969 22.547C35.5527 20.7028 33.0516 19.6667 30.4436 19.6667C27.8356 19.6667 25.3346 20.7028 23.4904 22.547C21.6462 24.3911 20.6102 26.8922 20.6102 29.5002H30.4436H40.2769Z" fill="#5BD0F4"/>
<path d="M75.3502 18.4164H71.6863V38.7714H75.3502V18.4164Z" fill="#0F52FF"/>
<path d="M77.742 31.5605C77.742 36.2712 80.9988 39.1791 85.3024 39.1791C89.6061 39.1791 92.8629 36.2712 92.8629 31.5605C92.8629 26.8498 89.6061 23.9419 85.3024 23.9419C80.9988 23.9419 77.742 26.8498 77.742 31.5605ZM81.4059 31.5605C81.4059 28.7689 83.0343 27.1405 85.3024 27.1405C87.5706 27.1405 89.199 28.7689 89.199 31.5605C89.199 34.352 87.5706 35.9804 85.3024 35.9804C83.0343 35.9804 81.4059 34.352 81.4059 31.5605Z" fill="#0F52FF"/>
<path d="M105.956 24.349V26.2972H105.665C104.793 25.0469 103.397 23.9419 100.896 23.9419C97.465 23.9419 94.3826 26.8498 94.3826 31.3279C94.3826 35.806 97.465 38.7138 100.896 38.7138C103.397 38.7138 104.793 37.5797 105.607 36.4457H105.898V37.8415C105.898 40.633 104.269 41.9125 101.885 41.9125C99.5005 41.9125 98.2792 40.633 97.7847 38.9754L94.4989 40.4004C95.255 42.5812 97.465 44.9948 101.943 44.9948C106.537 44.9948 109.562 42.5812 109.562 37.9286V24.349H105.956ZM102.001 35.5733C99.7331 35.5733 98.0465 33.9449 98.0465 31.3279C98.0465 28.7108 99.7331 27.0824 102.001 27.0824C104.269 27.0824 105.956 28.7108 105.956 31.3279C105.956 33.9449 104.269 35.5733 102.001 35.5733Z" fill="#0F52FF"/>
<path d="M111.932 31.5605C111.932 36.2712 115.189 39.1791 119.493 39.1791C123.796 39.1791 127.053 36.2712 127.053 31.5605C127.053 26.8498 123.796 23.9419 119.493 23.9419C115.189 23.9419 111.932 26.8498 111.932 31.5605ZM115.596 31.5605C115.596 28.7689 117.225 27.1405 119.493 27.1405C121.761 27.1405 123.389 28.7689 123.389 31.5605C123.389 34.352 121.761 35.9804 119.493 35.9804C117.225 35.9804 115.596 34.352 115.596 31.5605Z" fill="#0F52FF"/>
<path d="M129.93 20.161C129.93 21.6441 131.064 22.6618 132.519 22.6618C133.972 22.6618 135.106 21.6441 135.106 20.161C135.106 18.6781 133.972 17.6603 132.519 17.6603C131.064 17.6603 129.93 18.6781 129.93 20.161ZM134.349 24.3483H130.686V38.7713H134.349V24.3483Z" fill="#5BD0F4"/>
<path d="M137.614 44.5877H141.279V36.9109H141.569C142.383 38.0741 143.779 39.1791 146.28 39.1791C149.711 39.1791 152.794 36.2712 152.794 31.5605C152.794 26.8498 149.711 23.9419 146.28 23.9419C143.779 23.9419 142.383 25.0469 141.511 26.2973H141.22V24.349H137.614V44.5877ZM145.174 36.0386C142.907 36.0386 141.22 34.4102 141.22 31.5605C141.22 28.7108 142.907 27.0824 145.174 27.0824C147.443 27.0824 149.129 28.7108 149.129 31.5605C149.129 34.4102 147.443 36.0386 145.174 36.0386Z" fill="#5BD0F4"/>
<path d="M154.931 28.391C154.931 31.2407 157.315 32.2875 160.339 32.8691L161.096 33.0144C162.898 33.3634 163.712 33.7996 163.712 34.7301C163.712 35.6606 162.898 36.3875 161.212 36.3875C159.525 36.3875 158.159 35.6896 157.78 33.596L154.407 34.4683C154.903 37.4925 157.431 39.1791 161.212 39.1791C164.875 39.1791 167.261 37.4635 167.261 34.4393C167.261 31.415 164.818 30.601 161.561 29.9612L160.804 29.8158C159.292 29.525 158.478 29.1179 158.478 28.1584C158.478 27.286 159.235 26.7334 160.631 26.7334C162.026 26.7334 163.014 27.315 163.363 28.8852L166.679 27.8676C165.981 25.5413 163.859 23.9419 160.631 23.9419C157.199 23.9419 154.931 25.5413 154.931 28.391Z" fill="#5BD0F4"/>
<path d="M183.718 38.7714V24.3484H180.055V31.7925C180.055 34.4677 178.747 36.038 176.507 36.038C174.529 36.038 173.425 34.9621 173.425 32.7812V24.3484H169.761V32.9556C169.761 36.5324 172.001 39.004 175.374 39.004C178.019 39.004 179.241 37.8408 179.823 36.6195H180.113V38.7714H183.718Z" fill="#5BD0F4"/>
<path d="M186.969 24.3486V38.7716H190.633V30.1643C190.633 28.187 191.564 27.082 193.25 27.082C194.704 27.082 195.576 27.8962 195.576 29.4664V38.7716H199.241V30.1643C199.241 28.187 200.171 27.082 201.857 27.082C203.312 27.082 204.183 27.8962 204.183 29.4664V38.7716H207.848V29.292C207.848 25.8025 205.695 24.116 203.02 24.116C200.665 24.116 199.59 25.1628 198.892 26.3841H198.6C197.931 25.0175 196.739 24.116 194.645 24.116C192.552 24.116 191.417 25.0465 190.866 26.1515H190.574V24.3486H186.969Z" fill="#5BD0F4"/>
</svg>
