<svg width="213" height="59" viewBox="0 0 213 59" fill="none" xmlns="http://www.w3.org/2000/svg">
<path fill-rule="evenodd" clip-rule="evenodd" d="M105.881 6.43504C107.933 4.38233 111.262 4.38233 113.314 6.43504C115.367 8.48789 115.367 11.8161 113.314 13.869L100.799 26.3845C97.2057 21.5687 97.5961 14.7197 101.97 10.3456L105.881 6.43504Z" fill="#4F9E91"/>
<path fill-rule="evenodd" clip-rule="evenodd" d="M123.772 34.6719C125.825 36.7246 125.825 40.053 123.772 42.1057C121.72 44.1586 118.391 44.1586 116.339 42.1057L103.823 29.5904C108.639 25.9971 115.488 26.3873 119.862 30.7613L123.772 34.6719Z" fill="#EBE1C5"/>
<path fill-rule="evenodd" clip-rule="evenodd" d="M95.5349 52.5645C93.4822 54.6174 90.1538 54.6174 88.1011 52.5645C86.0482 50.5117 86.0482 47.1834 88.1011 45.1306L100.616 32.6152C104.21 37.431 103.82 44.28 99.4455 48.6539L95.5349 52.5645Z" fill="#EBCC6E"/>
<path fill-rule="evenodd" clip-rule="evenodd" d="M77.6431 24.3266C75.5902 22.2738 75.5902 18.9455 77.6431 16.8927C79.696 14.8398 83.0242 14.8398 85.077 16.8927L97.5925 29.4082C92.7768 33.0015 85.9276 32.6111 81.5537 28.2372L77.6431 24.3266Z" fill="#ED834E"/>
<path fill-rule="evenodd" clip-rule="evenodd" d="M103.083 51.0315C106.11 47.666 107.517 43.3595 107.303 39.1195L113.314 45.1302C113.329 45.1451 113.344 45.16 113.359 45.175V49.4662C113.359 52.3693 111.006 54.7227 108.103 54.7227C105.745 54.7227 103.749 53.1701 103.083 51.0315Z" fill="#ED834E"/>
<path fill-rule="evenodd" clip-rule="evenodd" d="M79.1756 31.8751C82.5409 34.9022 86.8474 36.3091 91.0874 36.0956L85.0769 42.1063C85.0618 42.1212 85.0469 42.1363 85.0321 42.1512H80.7409C77.8378 42.1514 75.4843 39.7978 75.4843 36.8947C75.4843 34.5368 77.0369 32.5414 79.1756 31.8751Z" fill="#4F9E91"/>
<path fill-rule="evenodd" clip-rule="evenodd" d="M122.24 27.1249C118.875 24.0978 114.568 22.6909 110.328 22.9042L116.339 16.8937C116.354 16.8788 116.368 16.8637 116.383 16.8486H120.675C123.578 16.8486 125.932 19.2022 125.932 22.1053C125.932 24.4633 124.379 26.4586 122.24 27.1249Z" fill="#EBCC6E"/>
<path fill-rule="evenodd" clip-rule="evenodd" d="M98.3327 7.96787C95.3056 11.3332 93.8989 15.6397 94.1122 19.8798L88.1017 13.8692C88.0866 13.8543 88.0717 13.8393 88.0566 13.8244V9.53318C88.0566 6.63007 90.41 4.27649 93.3131 4.27649C95.6711 4.27649 97.6664 5.82922 98.3327 7.96787Z" fill="#EBE1C5"/>
<path fill-rule="evenodd" clip-rule="evenodd" d="M93.3129 0C88.0478 0 83.7795 4.26828 83.7795 9.5334V11.3876C80.6119 10.56 77.1014 11.3872 74.6191 13.8694C70.8961 17.5925 70.8961 23.6287 74.6191 27.3517L75.9302 28.6628C73.1052 30.3174 71.2079 33.3846 71.2079 36.8949C71.2079 42.16 75.4762 46.4283 80.7413 46.4283H82.5954C81.7677 49.5959 82.5949 53.1064 85.0772 55.5885C88.8002 59.3115 94.8365 59.3115 98.5595 55.5885L102.47 51.678C105.92 48.2284 107.531 43.6363 107.303 39.1196L113.314 45.1303C117.037 48.8533 123.074 48.8533 126.797 45.1303C130.52 41.4072 130.52 35.371 126.797 31.6481L125.486 30.3372C128.31 28.6826 130.208 25.6154 130.208 22.1051C130.208 16.84 125.939 12.5717 120.674 12.5717H118.82C119.648 9.40397 118.821 5.89349 116.338 3.41122C112.615 -0.31182 106.579 -0.31182 102.856 3.41122L98.9456 7.32183C95.4959 10.7715 93.8847 15.3634 94.1121 19.8801L88.1014 13.8694C88.0864 13.8545 88.0714 13.8395 88.0563 13.8246V9.5334C88.0563 6.63029 90.4098 4.27686 93.3129 4.27686C95.6709 4.27686 97.6662 5.82944 98.3324 7.96809C98.5299 7.74858 98.7342 7.53306 98.9454 7.32183L101.545 4.72225C99.8904 1.89724 96.8232 0 93.3129 0ZM116.383 16.8486C116.368 16.8635 116.353 16.8786 116.338 16.8935L110.328 22.904C114.568 22.6907 118.874 24.0975 122.239 27.1247C124.378 26.4584 125.932 24.463 125.932 22.1051C125.932 19.202 123.578 16.8486 120.674 16.8486H116.383ZM85.0322 42.1514C85.0472 42.1363 85.0621 42.1213 85.0772 42.1063L91.0877 36.0957C86.8477 36.3091 82.5414 34.9022 79.176 31.8753C77.0374 32.5416 75.4846 34.5369 75.4846 36.8949C75.4846 39.798 77.8382 42.1514 80.7413 42.1514H85.0322ZM79.0121 31.7259C78.849 31.5752 78.6882 31.4206 78.5297 31.2622V31.2623C78.6882 31.4208 78.849 31.5752 79.0121 31.7259ZM108.103 59C104.592 59 101.525 57.1026 99.8705 54.2776L102.47 51.678C102.681 51.4668 102.886 51.2513 103.083 51.0318C103.749 53.1704 105.745 54.7231 108.103 54.7231C111.006 54.7231 113.359 52.3697 113.359 49.4666V45.1754C114.591 46.3912 116.072 47.2035 117.636 47.6123V49.4666C117.636 54.7317 113.368 59 108.103 59ZM113.314 6.43533C111.261 4.38262 107.933 4.38262 105.88 6.43533L101.97 10.3459C97.5958 14.72 97.2054 21.569 100.799 26.3848L113.314 13.8693C115.367 11.8164 115.367 8.48819 113.314 6.43533ZM123.772 42.1062C125.825 40.0533 125.825 36.7251 123.772 34.6722L119.862 30.7616C115.488 26.3877 108.639 25.9974 103.823 29.5907L116.338 42.1062C118.391 44.159 121.72 44.159 123.772 42.1062ZM95.5352 52.5644C93.4824 54.6172 90.1542 54.6172 88.1013 52.5644C86.0486 50.5115 86.0486 47.1833 88.1013 45.1304L100.617 32.6149C104.21 37.4307 103.82 44.2799 99.4458 48.6538L95.5352 52.5644ZM77.6432 16.8935C75.5905 18.9464 75.5905 22.2746 77.6432 24.3275L81.5538 28.2381C85.9279 32.612 92.7769 33.0023 97.5927 29.409L85.0772 16.8935C83.0243 14.8408 79.6961 14.8408 77.6432 16.8935Z" fill="#3D3A2C"/>
<path d="M0.64447 19.2781H5.31968V33.8057H13.3495V37.7414H0.64447V19.2781Z" fill="white"/>
<path d="M21.838 38.1376C20.2708 38.1376 18.8972 37.8558 17.7174 37.2923C16.5375 36.7112 15.6219 35.9187 14.9703 34.9151C14.3365 33.8937 14.0195 32.7228 14.0195 31.402C14.0195 30.0813 14.3365 28.9191 14.9703 27.9155C15.6219 26.8941 16.5375 26.1016 17.7174 25.5382C18.8972 24.957 20.2708 24.6665 21.838 24.6665C23.4052 24.6665 24.7787 24.957 25.9585 25.5382C27.1383 26.1016 28.0452 26.8941 28.6791 27.9155C29.3307 28.9191 29.6564 30.0813 29.6564 31.402C29.6564 32.7228 29.3307 33.8937 28.6791 34.9151C28.0452 35.9187 27.1383 36.7112 25.9585 37.2923C24.7787 37.8558 23.4052 38.1376 21.838 38.1376ZM21.838 34.5188C22.7712 34.5188 23.5109 34.2459 24.0567 33.7001C24.6203 33.1365 24.9019 32.3706 24.9019 31.402C24.9019 30.4335 24.6203 29.6763 24.0567 29.1305C23.5109 28.5669 22.7712 28.2853 21.838 28.2853C20.9046 28.2853 20.1563 28.5669 19.5929 29.1305C19.0469 29.6763 18.774 30.4335 18.774 31.402C18.774 32.3706 19.0469 33.1365 19.5929 33.7001C20.1563 34.2459 20.9046 34.5188 21.838 34.5188Z" fill="white"/>
<path d="M38.389 43.8166C37.5438 43.8166 36.6897 43.7373 35.8268 43.5789C34.9816 43.4203 34.2507 43.2091 33.6345 42.9449V39.7224C35.0256 40.321 36.6104 40.6204 38.389 40.6204C39.6744 40.6204 40.5989 40.3562 41.1624 39.828C41.7436 39.2998 42.0341 38.525 42.0341 37.5036V36.7376C41.5235 37.1779 40.8895 37.5212 40.1322 37.7678C39.3926 38.0144 38.6002 38.1376 37.755 38.1376C36.4168 38.1376 35.2369 37.8558 34.2155 37.2923C33.1943 36.7288 32.393 35.9363 31.812 34.9151C31.2484 33.8937 30.9667 32.7228 30.9667 31.402C30.9667 30.0637 31.2484 28.8839 31.812 27.8626C32.3754 26.8412 33.1678 26.0576 34.1892 25.5117C35.2105 24.9483 36.3816 24.6665 37.7022 24.6665C39.516 24.6665 41.0127 25.2212 42.1925 26.3306V25.0626H46.683V36.8697C46.683 39.0708 46.0049 40.779 44.649 41.994C43.3108 43.2091 41.2241 43.8166 38.389 43.8166ZM38.9172 34.5453C39.6392 34.5453 40.2819 34.3604 40.8454 33.9906C41.409 33.6208 41.8051 33.1278 42.0341 32.5114V30.2927C41.7875 29.6763 41.3825 29.192 40.8191 28.8398C40.2555 28.4702 39.6216 28.2853 38.9172 28.2853C37.9664 28.2853 37.2003 28.5669 36.6193 29.1305C36.0381 29.6763 35.7476 30.4246 35.7476 31.3756C35.7476 32.3441 36.0381 33.1189 36.6193 33.7001C37.2003 34.2635 37.9664 34.5453 38.9172 34.5453Z" fill="white"/>
<path d="M55.6808 38.1376C54.1136 38.1376 52.7401 37.8558 51.5603 37.2923C50.3805 36.7112 49.4647 35.9187 48.8132 34.9151C48.1792 33.8937 47.8622 32.7228 47.8622 31.402C47.8622 30.0813 48.1792 28.9191 48.8132 27.9155C49.4647 26.8941 50.3805 26.1016 51.5603 25.5382C52.7401 24.957 54.1136 24.6665 55.6808 24.6665C57.248 24.6665 58.6215 24.957 59.8013 25.5382C60.9811 26.1016 61.888 26.8941 62.522 27.9155C63.1735 28.9191 63.4993 30.0813 63.4993 31.402C63.4993 32.7228 63.1735 33.8937 62.522 34.9151C61.888 35.9187 60.9811 36.7112 59.8013 37.2923C58.6215 37.8558 57.248 38.1376 55.6808 38.1376ZM55.6808 34.5188C56.614 34.5188 57.3536 34.2459 57.8996 33.7001C58.463 33.1365 58.7448 32.3706 58.7448 31.402C58.7448 30.4335 58.463 29.6763 57.8996 29.1305C57.3536 28.5669 56.614 28.2853 55.6808 28.2853C54.7475 28.2853 53.9991 28.5669 53.4356 29.1305C52.8897 29.6763 52.6167 30.4335 52.6167 31.402C52.6167 32.3706 52.8897 33.1365 53.4356 33.7001C53.9991 34.2459 54.7475 34.5188 55.6808 34.5188Z" fill="white"/>
<path d="M138.062 19.2781H142.738V37.7414H138.062V19.2781Z" fill="white"/>
<path d="M145.105 25.0626H149.596V26.3306C150.775 25.2212 152.272 24.6665 154.086 24.6665C155.407 24.6665 156.578 24.9483 157.599 25.5117C158.621 26.0576 159.412 26.8412 159.976 27.8626C160.54 28.8663 160.822 30.0374 160.822 31.3756C160.822 32.6963 160.54 33.8761 159.976 34.9151C159.412 35.9363 158.621 36.7288 157.599 37.2923C156.596 37.8558 155.424 38.1376 154.086 38.1376C153.241 38.1376 152.43 38.0055 151.657 37.7413C150.899 37.4949 150.265 37.1514 149.755 36.7112V43.5259H145.105V25.0626ZM152.871 34.5188C153.822 34.5188 154.589 34.2372 155.169 33.6736C155.75 33.1102 156.041 32.3441 156.041 31.3756C156.041 30.407 155.75 29.65 155.169 29.104C154.589 28.5406 153.822 28.2588 152.871 28.2588C152.167 28.2588 151.533 28.4437 150.969 28.8135C150.405 29.1657 150.002 29.65 149.755 30.2662V32.5114C150.002 33.1278 150.405 33.6208 150.969 33.9906C151.533 34.3428 152.167 34.5188 152.871 34.5188Z" fill="white"/>
<path d="M167.752 38.1376C166.731 38.1376 165.666 38.032 164.557 37.8206C163.448 37.6269 162.566 37.3452 161.915 36.9754V33.568C162.637 33.9906 163.499 34.3428 164.504 34.6246C165.524 34.8886 166.458 35.0207 167.304 35.0207C167.919 35.0207 168.369 34.9766 168.65 34.8886C168.932 34.8006 169.073 34.6246 169.073 34.3604C169.073 34.149 168.977 33.9817 168.783 33.8585C168.607 33.7177 168.271 33.5767 167.779 33.4359C167.304 33.2775 166.749 33.1102 166.115 32.934C165.041 32.617 164.196 32.2913 163.579 31.9567C162.962 31.6221 162.505 31.1995 162.205 30.6888C161.906 30.1782 161.757 29.5355 161.757 28.7607C161.757 27.3871 162.294 26.3658 163.368 25.6966C164.459 25.0098 165.947 24.6665 167.832 24.6665C168.748 24.6665 169.708 24.7634 170.71 24.957C171.733 25.1508 172.497 25.4061 173.009 25.7231V29.0777C172.481 28.7255 171.776 28.4348 170.895 28.206C170.033 27.977 169.222 27.8626 168.465 27.8626C167.867 27.8626 167.4 27.9242 167.066 28.0474C166.731 28.1532 166.564 28.3468 166.564 28.6286C166.564 28.8928 166.731 29.0953 167.066 29.2361C167.4 29.3769 167.999 29.5531 168.861 29.7643C169.425 29.9053 169.663 29.9668 169.574 29.9492C170.702 30.2486 171.573 30.5832 172.19 30.953C172.807 31.3228 173.237 31.763 173.484 32.2737C173.749 32.7667 173.88 33.4007 173.88 34.1755C173.88 35.3905 173.352 36.359 172.296 37.081C171.256 37.7854 169.742 38.1376 167.752 38.1376Z" fill="white"/>
<path d="M180.821 38.1378C179.078 38.1378 177.766 37.6535 176.886 36.6851C176.024 35.7165 175.592 34.4399 175.592 32.8551V25.0629H180.241V32.3267C180.241 33.7883 180.901 34.519 182.222 34.519C182.821 34.519 183.366 34.3782 183.859 34.0964C184.352 33.8146 184.757 33.4009 185.073 32.8551V25.0629H189.723V37.7415H185.233V36.3681C184.687 36.9491 184.026 37.3893 183.251 37.6887C182.477 37.9881 181.667 38.1378 180.821 38.1378Z" fill="white"/>
<path d="M192.102 25.0626H196.408V26.4362C196.937 25.8728 197.545 25.4413 198.231 25.1419C198.917 24.8249 199.648 24.6665 200.423 24.6665C201.374 24.6665 202.132 24.8073 202.695 25.0891C203.276 25.3709 203.742 25.7935 204.094 26.357C204.623 25.8287 205.266 25.4148 206.023 25.1156C206.781 24.8162 207.547 24.6665 208.321 24.6665C209.994 24.6665 211.183 25.098 211.887 25.9608C212.591 26.806 212.943 28.0298 212.943 29.6322V37.7413H208.506V30.2927C208.506 29.5883 208.374 29.0777 208.109 28.7607C207.846 28.4437 207.405 28.2853 206.79 28.2853C205.997 28.2853 205.353 28.5669 204.861 29.1305C204.878 29.4297 204.887 29.8877 204.887 30.5039V37.7413H200.45V30.1078C200.45 29.4562 200.336 28.9895 200.107 28.7079C199.877 28.4261 199.472 28.2853 198.892 28.2853C197.993 28.2853 197.219 28.787 196.567 29.7908V37.7413H192.102V25.0626Z" fill="white"/>
</svg>
