<svg width="296" height="59" viewBox="0 0 296 59" fill="none" xmlns="http://www.w3.org/2000/svg">
<path d="M42.6659 48.8306L3.18645 21.5977C-0.814312 18.8381 0.545686 13.0922 5.53453 11.741L47.4941 0.352723C48.3829 0.0320001 49.3355 -0.0721106 50.2726 0.0490339C51.2097 0.170178 52.1044 0.513083 52.8825 1.04929C53.6606 1.58549 54.2995 2.29953 54.7463 3.13215C55.1931 3.96476 55.4349 4.89194 55.4516 5.83672L52.9649 44.4557C52.67 49.0397 46.6667 51.5902 42.6659 48.8306Z" fill="#E9327C"/>
<path d="M30.1439 55.5531L6.88534 10.0681C6.35368 9.02755 6.11972 7.86037 6.20927 6.69528C6.29882 5.5302 6.70839 4.41247 7.39283 3.46538C8.07726 2.51828 9.00996 1.7786 10.0881 1.32792C11.1662 0.87723 12.3478 0.733045 13.5027 0.911259L56.6066 7.56379C57.599 7.71697 58.5408 8.10351 59.3547 8.69164C60.1686 9.27976 60.8313 10.0527 61.2882 10.9468C61.7452 11.841 61.9834 12.8308 61.9832 13.8349C61.9831 14.8391 61.7446 15.8288 61.2873 16.7228L41.431 55.5553C40.8978 56.5929 40.0889 57.4634 39.0931 58.0711C38.0973 58.6788 36.9533 59.0002 35.7868 59C34.6202 58.9998 33.4763 58.6779 32.4808 58.0698C31.4853 57.4617 30.6767 56.5909 30.1439 55.5531Z" fill="#1DACE3"/>
<path d="M55.346 7.36837L33.859 4.052L7.47769 11.2151L18.0078 31.8153L42.6659 48.8306C43.2099 49.2018 43.8083 49.4861 44.4396 49.6735L53.8055 31.3575L55.346 7.36837Z" fill="#3A68B8"/>
<path d="M164.183 12.6849C164.183 11.8862 164.42 11.1055 164.863 10.4414C165.307 9.77734 165.938 9.25975 166.676 8.95411C167.414 8.64847 168.225 8.56851 169.009 8.72432C169.792 8.88014 170.512 9.26474 171.076 9.82949C171.641 10.3942 172.026 11.1138 172.182 11.8971C172.337 12.6804 172.257 13.4924 171.952 14.2302C171.646 14.9681 171.129 15.5988 170.464 16.0425C169.8 16.4862 169.02 16.7231 168.221 16.7231C167.153 16.7122 166.133 16.2832 165.378 15.5283C164.623 14.7733 164.194 13.7525 164.183 12.6849ZM164.856 18.6971H171.588V41.1304H164.856V18.6971Z" fill="white"/>
<path d="M200.658 29.9139C200.736 31.3967 200.521 32.8803 200.024 34.2795C199.526 35.6786 198.757 36.9656 197.761 38.0666C196.765 39.1675 195.56 40.0605 194.218 40.6944C192.875 41.3282 191.42 41.6904 189.937 41.7599C188.689 41.8279 187.442 41.6174 186.286 41.144C185.129 40.6705 184.093 39.9458 183.251 39.0223V50.1048H176.522V18.6972H183.251V20.8055C184.093 19.8824 185.13 19.1581 186.286 18.685C187.442 18.2119 188.689 18.0019 189.937 18.0701C191.42 18.1394 192.875 18.5012 194.217 19.1348C195.56 19.7685 196.764 20.6613 197.761 21.7621C198.757 22.8628 199.526 24.1497 200.024 25.5487C200.521 26.9477 200.736 28.4312 200.658 29.9139ZM193.929 29.9139C193.902 28.8636 193.567 27.8444 192.964 26.9839C192.361 26.1233 191.518 25.4597 190.54 25.076C189.562 24.6924 188.492 24.6057 187.465 24.8269C186.438 25.048 185.499 25.5672 184.765 26.3195C184.032 27.0717 183.537 28.0236 183.341 29.0559C183.146 30.0883 183.26 31.1553 183.668 32.1234C184.076 33.0915 184.761 33.9176 185.637 34.4985C186.512 35.0794 187.539 35.3892 188.59 35.3891C189.311 35.4216 190.032 35.3011 190.703 35.0356C191.375 34.7701 191.983 34.3655 192.487 33.8484C192.991 33.3314 193.38 32.7135 193.629 32.0354C193.877 31.3573 193.979 30.6343 193.929 29.9139Z" fill="white"/>
<path d="M221.431 34.3967C221.431 39.5572 216.944 41.7556 212.098 41.7556C210.14 41.9328 208.175 41.5185 206.455 40.5663C204.735 39.6141 203.341 38.1679 202.452 36.4147L208.284 33.0961C208.521 33.9065 209.029 34.6109 209.723 35.0916C210.418 35.5723 211.256 35.8001 212.098 35.7369C213.713 35.7369 214.519 35.2417 214.519 34.3461C214.519 31.877 203.482 33.1797 203.482 25.4159C203.482 20.5261 207.608 18.0592 212.285 18.0592C214.039 18.0041 215.776 18.4203 217.314 19.2645C218.853 20.1086 220.137 21.3498 221.032 22.8587L215.291 25.955C215.04 25.3662 214.621 24.8643 214.086 24.5121C213.552 24.1598 212.925 23.9729 212.285 23.9745C211.119 23.9745 210.401 24.4146 210.401 25.231C210.394 27.8058 221.431 26.1003 221.431 34.3967Z" fill="white"/>
<path d="M246.027 18.6968V41.1301H239.297V39.0175C238.52 39.9481 237.533 40.6814 236.418 41.1572C235.302 41.633 234.09 41.8379 232.88 41.7551C228.349 41.7551 224.491 38.5245 224.491 32.4662V18.6968H231.221V31.4847C231.164 32.0194 231.225 32.56 231.398 33.0688C231.572 33.5777 231.855 34.0426 232.226 34.4312C232.598 34.8198 233.05 35.1227 233.55 35.3188C234.051 35.515 234.588 35.5996 235.125 35.5669C237.592 35.5669 239.306 34.1321 239.306 30.9455V18.6968H246.027Z" fill="white"/>
<path d="M284.599 27.3538V41.1298H277.87V27.9391C277.87 25.6967 276.792 24.2597 274.639 24.2597C272.395 24.2597 271.14 25.8309 271.14 28.4783V41.1298H264.409V27.9391C264.409 25.6967 263.332 24.2597 261.178 24.2597C258.936 24.2597 257.679 25.8309 257.679 28.4783V41.1298H250.949V18.6965H257.69V20.7518C258.387 19.8366 259.303 19.1108 260.353 18.6406C261.404 18.1705 262.555 17.971 263.702 18.0605C264.854 18.0041 266.001 18.2472 267.031 18.7659C268.061 19.2846 268.939 20.0613 269.58 21.0203C270.326 20.0169 271.314 19.2191 272.452 18.7014C273.59 18.1838 274.841 17.9633 276.087 18.0605C281.237 18.0693 284.599 21.7465 284.599 27.3538Z" fill="white"/>
<path d="M290.301 18.5582C293.06 18.5582 295.297 16.3216 295.297 13.5627C295.297 10.8038 293.06 8.56726 290.301 8.56726C287.542 8.56726 285.306 10.8038 285.306 13.5627C285.306 16.3216 287.542 18.5582 290.301 18.5582Z" fill="white"/>
<path d="M72.302 8.37817H79.0338V41.1303H72.302V8.37817ZM82.8453 29.9136C82.8379 27.5617 83.5285 25.2605 84.8298 23.3014C86.131 21.3422 87.9844 19.8133 90.1551 18.9081C92.3259 18.0029 94.7164 17.7623 97.024 18.2166C99.3317 18.6709 101.453 19.7997 103.118 21.4601C104.784 23.1205 105.919 25.2379 106.381 27.5441C106.843 29.8503 106.609 32.2415 105.711 34.4151C104.813 36.5887 103.29 38.4469 101.335 39.7543C99.3797 41.0618 97.0806 41.7597 94.7287 41.7597C93.1667 41.7764 91.617 41.4817 90.1701 40.8927C88.7232 40.3038 87.4082 39.4324 86.3019 38.3296C85.1956 37.2267 84.3201 35.9145 83.7266 34.4695C83.1331 33.0245 82.8335 31.4757 82.8453 29.9136ZM99.8958 29.9136C99.8694 28.8991 99.5445 27.9149 98.9616 27.0841C98.3788 26.2533 97.5639 25.6128 96.6189 25.2427C95.6739 24.8726 94.6408 24.7894 93.6488 25.0034C92.6567 25.2175 91.7498 25.7192 91.0415 26.446C90.3332 27.1728 89.8548 28.0923 89.6663 29.0895C89.4779 30.0867 89.5876 31.1173 89.9818 32.0525C90.376 32.9876 91.0373 33.7858 91.8827 34.3471C92.7282 34.9085 93.7205 35.208 94.7353 35.2084C95.4303 35.2282 96.1218 35.1038 96.7662 34.843C97.4107 34.5823 97.9942 34.1909 98.4799 33.6934C98.9655 33.196 99.3429 32.6033 99.5881 31.9527C99.8333 31.3022 99.9411 30.6079 99.9046 29.9136H99.8958ZM133.453 18.6904V40.0036C133.453 47.5407 127.575 50.7251 121.61 50.7251C119.509 50.8836 117.406 50.4609 115.531 49.5032C113.655 48.5456 112.079 47.09 110.976 45.2961L116.718 41.9753C117.181 42.9116 117.919 43.6841 118.834 44.1894C119.748 44.6948 120.795 44.9089 121.834 44.8032C122.497 44.8937 123.173 44.8342 123.81 44.629C124.447 44.4237 125.03 44.078 125.516 43.6174C126.002 43.1567 126.378 42.5928 126.617 41.9674C126.855 41.3419 126.951 40.6708 126.895 40.0036V37.9394C126.107 38.9034 125.104 39.6693 123.966 40.1756C122.829 40.682 121.588 40.9147 120.344 40.8552C117.383 40.7632 114.574 39.5222 112.512 37.3951C110.45 35.268 109.297 32.4217 109.297 29.4592C109.297 26.4967 110.45 23.6504 112.512 21.5233C114.574 19.3962 117.383 18.1552 120.344 18.0632C121.588 18.0037 122.829 18.2364 123.966 18.7428C125.104 19.2491 126.107 20.015 126.895 20.979V18.6904H133.453ZM126.904 29.4581C126.949 28.3746 126.668 27.3026 126.098 26.3799C125.528 25.4572 124.696 24.726 123.707 24.2804C122.718 23.8348 121.619 23.6951 120.55 23.8792C119.482 24.0633 118.492 24.5629 117.71 25.3137C116.927 26.0645 116.387 27.0322 116.159 28.0923C115.931 29.1525 116.025 30.2566 116.43 31.2628C116.834 32.2691 117.53 33.1313 118.429 33.7387C119.327 34.3461 120.386 34.6709 121.471 34.6714C122.178 34.7211 122.888 34.6223 123.554 34.3813C124.221 34.1403 124.829 33.7624 125.341 33.272C125.853 32.7816 126.256 32.1894 126.526 31.5337C126.795 30.878 126.924 30.1732 126.904 29.4647V29.4581ZM137.265 29.8982C137.257 27.5463 137.948 25.2451 139.249 23.286C140.551 21.3268 142.404 19.7979 144.575 18.8927C146.745 17.9875 149.136 17.7469 151.444 18.2012C153.751 18.6554 155.872 19.7843 157.538 21.4447C159.204 23.1051 160.339 25.2225 160.801 27.5287C161.262 29.8349 161.029 32.2261 160.131 34.3997C159.232 36.5733 157.709 38.4315 155.754 39.7389C153.799 41.0463 151.5 41.7443 149.148 41.7443C147.588 41.7609 146.039 41.4667 144.593 40.8787C143.147 40.2908 141.833 39.4208 140.727 38.3196C139.621 37.2184 138.745 35.908 138.151 34.4648C137.556 33.0215 137.255 31.4744 137.265 29.9136V29.8982ZM154.315 29.8982C154.289 28.8831 153.965 27.8981 153.382 27.0666C152.799 26.2351 151.984 25.594 151.038 25.2235C150.093 24.853 149.059 24.7695 148.066 24.9836C147.074 25.1976 146.166 25.6996 145.457 26.4268C144.748 27.1541 144.27 28.0742 144.081 29.072C143.893 30.0698 144.003 31.1011 144.398 32.0368C144.792 32.9724 145.454 33.7709 146.3 34.3323C147.146 34.8937 148.139 35.1931 149.155 35.193C149.848 35.2114 150.537 35.0865 151.179 34.8261C151.822 34.5658 152.403 34.1756 152.888 33.6799C153.372 33.1843 153.749 32.5939 153.995 31.9458C154.24 31.2977 154.35 30.6059 154.315 29.9136V29.8982Z" fill="white"/>
</svg>
