<svg width="218" height="59" viewBox="0 0 218 59" fill="none" xmlns="http://www.w3.org/2000/svg">
<path d="M17.9567 56.351L11.9975 46.0293L20.743 30.9231L26.3004 40.5496L59.1069 40.5319L49.7979 56.4934L17.9567 56.351Z" fill="#FFAD64"/>
<path d="M64.9646 30.2832L59.0054 40.6048L41.5505 40.5842L47.1085 30.958L30.6899 2.55554L49.1675 2.63661L64.9646 30.2832Z" fill="#ADD4D3"/>
<path d="M18.8748 2.49988H30.7932L39.5028 17.6269L28.3871 17.6264L11.9993 46.0466L2.83063 30.004L18.8748 2.49988Z" fill="#FB8351"/>
<path fill-rule="evenodd" clip-rule="evenodd" d="M32.2463 0.110241L32.2108 0.048584H17.4668L0 29.9917L11.99 50.9709L12.0047 50.9455L16.5374 58.7964L51.2023 58.9515L63.3759 38.0781H63.2949L67.792 30.289L50.5939 0.190738L32.2463 0.110241ZM43.6518 20.0788H43.7437L35.0767 5.02597L47.7413 5.0815L62.1375 30.2763L57.6314 38.0812L45.8226 38.0875L49.9399 30.9567L43.6518 20.0788ZM29.2438 4.95176L35.1536 15.1753L26.9712 15.175L12.9627 39.4685L12.0072 41.1191L5.6619 30.0167L20.2831 4.95176H29.2438ZM23.5619 30.9029L29.8037 20.0783L37.9881 20.0786L44.2772 30.9581L40.159 38.0907L27.7154 38.0974L23.5619 30.9029ZM14.8338 46.0392L17.2085 41.9211L20.7398 35.8215L24.8853 43.0021L37.327 42.9954L37.3069 43.0302L54.7996 43.0509L48.3932 54.0356L19.3756 53.9057L14.8338 46.0392Z" fill="#333237"/>
<path d="M82.0712 50.422V38.9445H77.8291V37.656H87.9389V38.9445H83.6967V50.422H82.0712Z" fill="white"/>
<path d="M92.4557 50.6208C90.7773 50.6208 89.5219 50.2177 88.6893 49.4116C87.8567 48.6055 87.4405 47.3632 87.4405 45.6848C87.4405 44.1783 87.7973 42.9955 88.5109 42.1365C89.2377 41.2643 90.3809 40.8281 91.9403 40.8281C92.8653 40.8281 93.6252 41 94.2199 41.3436C94.8278 41.6739 95.2772 42.1365 95.568 42.7312C95.8718 43.3127 96.0238 43.9735 96.0238 44.7135V46.4778H89.066C89.1188 47.1914 89.2708 47.753 89.5218 48.1628C89.7862 48.5724 90.176 48.8697 90.6915 49.0548C91.22 49.2265 91.9139 49.3124 92.7728 49.3124C93.7375 49.3124 94.623 49.1473 95.4291 48.8169V50.0856C95.0195 50.2574 94.5569 50.3896 94.0415 50.482C93.5393 50.5745 93.0108 50.6208 92.4557 50.6208ZM89.066 45.3083H94.5767V44.5351C94.5767 43.7685 94.3719 43.1805 93.9622 42.7709C93.5658 42.348 92.905 42.1365 91.9799 42.1365C90.8566 42.1365 90.0902 42.4008 89.6804 42.9295C89.2708 43.458 89.066 44.251 89.066 45.3083Z" fill="white"/>
<path d="M102.847 50.6208C101.208 50.6208 99.992 50.1979 99.1992 49.3521C98.4062 48.4932 98.0097 47.2839 98.0097 45.7245C98.0097 44.0726 98.459 42.8435 99.3577 42.0374C100.256 41.2313 101.466 40.8281 102.985 40.8281C103.607 40.8281 104.122 40.8744 104.532 40.967C104.941 41.0462 105.338 41.1784 105.721 41.3633V42.6519C105.007 42.3083 104.195 42.1365 103.283 42.1365C102.12 42.1365 101.221 42.4141 100.587 42.9691C99.9523 43.5109 99.6352 44.4294 99.6352 45.7245C99.6352 46.9667 99.9128 47.8786 100.468 48.4601C101.023 49.0284 101.941 49.3124 103.223 49.3124C104.135 49.3124 104.974 49.1407 105.741 48.797V50.1054C105.331 50.2772 104.888 50.4027 104.413 50.482C103.95 50.5745 103.428 50.6208 102.847 50.6208Z" fill="white"/>
<path d="M107.563 50.4221V37.0613H109.188V42.037C109.625 41.6802 110.133 41.3894 110.715 41.1648C111.31 40.94 111.997 40.8277 112.776 40.8277C113.913 40.8277 114.765 41.1053 115.334 41.6603C115.902 42.2154 116.186 43.0876 116.186 44.2769V50.4221H114.561V44.3364C114.561 43.517 114.376 42.9488 114.006 42.6316C113.649 42.3013 113.054 42.136 112.221 42.136C111.693 42.136 111.144 42.2549 110.576 42.4928C110.021 42.7175 109.559 43.0149 109.188 43.3849V50.4221H107.563Z" fill="white"/>
<path d="M122.669 50.6207C121.347 50.6207 120.29 50.3299 119.497 49.7483C118.704 49.1669 118.308 48.3872 118.308 47.4092C118.308 46.5106 118.585 45.7375 119.14 45.0899C119.695 44.4424 120.455 43.8675 121.42 43.3654C120.904 42.85 120.468 42.3676 120.112 41.9183C119.755 41.469 119.576 40.9271 119.576 40.2928C119.576 39.4998 119.847 38.8324 120.389 38.2906C120.944 37.7356 121.724 37.4581 122.728 37.4581C123.706 37.4581 124.466 37.7157 125.008 38.2311C125.549 38.7465 125.821 39.4337 125.821 40.2928C125.821 41.0064 125.629 41.6077 125.245 42.0967C124.862 42.5857 124.314 43.0812 123.6 43.5835L126.891 46.9335C127.115 46.4445 127.228 45.8234 127.228 45.0701V44.7926H128.517V45.0701C128.517 45.5856 128.457 46.0877 128.338 46.5767C128.22 47.0657 128.047 47.4886 127.823 47.8454L129.607 49.6493L128.615 50.5413L127.029 48.9753C126.567 49.5435 125.966 49.9599 125.226 50.2242C124.486 50.4885 123.633 50.6207 122.669 50.6207ZM122.589 42.7905C123.211 42.4073 123.68 42.0439 123.997 41.7002C124.314 41.3434 124.473 40.8941 124.473 40.3523C124.473 39.8501 124.334 39.4536 124.056 39.1628C123.792 38.859 123.349 38.707 122.728 38.707C122.094 38.707 121.631 38.8655 121.341 39.1827C121.063 39.4998 120.924 39.8897 120.924 40.3523C120.924 40.7752 121.07 41.165 121.36 41.5218C121.664 41.8786 122.074 42.3015 122.589 42.7905ZM122.669 49.451C123.435 49.451 124.089 49.3387 124.631 49.1141C125.186 48.8761 125.655 48.526 126.039 48.0635L122.411 44.3565C121.552 44.753 120.911 45.1824 120.488 45.645C120.079 46.0943 119.874 46.6692 119.874 47.3697C119.874 48.0568 120.138 48.5788 120.667 48.9356C121.195 49.2792 121.863 49.451 122.669 49.451Z" fill="#FB8351"/>
<path d="M78.4697 28.3896V10.7135H83.6298V24.4371H91.5896V28.3896H78.4697Z" fill="#FB8351"/>
<path d="M99.8905 28.6642C97.2922 28.6642 95.3708 28.0878 94.1266 26.935C92.9007 25.7822 92.2877 24.0988 92.2877 21.8847C92.2877 19.689 92.9098 18.0147 94.1541 16.8619C95.3984 15.6908 97.3105 15.1052 99.8905 15.1052C102.489 15.1052 104.41 15.6908 105.654 16.8619C106.917 18.0147 107.548 19.689 107.548 21.8847C107.548 24.0988 106.926 25.7822 105.682 26.935C104.438 28.0878 102.507 28.6642 99.8905 28.6642ZM99.8905 24.9039C100.732 24.9039 101.336 24.6661 101.702 24.1902C102.086 23.7145 102.278 22.946 102.278 21.8847C102.278 20.8418 102.086 20.0823 101.702 19.6066C101.336 19.1125 100.732 18.8655 99.8905 18.8655C99.0671 18.8655 98.4724 19.1125 98.1064 19.6066C97.7405 20.0823 97.5575 20.8418 97.5575 21.8847C97.5575 22.946 97.7405 23.7145 98.1064 24.1902C98.4724 24.6661 99.0671 24.9039 99.8905 24.9039Z" fill="#FB8351"/>
<path d="M115.191 33.2205C114.55 33.2205 113.855 33.1931 113.105 33.1381C112.354 33.1016 111.641 33.0284 110.964 32.9186C110.305 32.8088 109.756 32.6807 109.317 32.5342V29.2406C109.811 29.4053 110.378 29.5426 111.019 29.6523C111.677 29.7621 112.345 29.8444 113.022 29.8994C113.699 29.9542 114.321 29.9817 114.889 29.9817C115.859 29.9817 116.618 29.9268 117.167 29.817C117.734 29.7256 118.018 29.5517 118.018 29.2955C118.018 29.076 117.926 28.9296 117.743 28.8564C117.56 28.8014 117.213 28.774 116.7 28.774H113.269C111.934 28.774 110.9 28.5636 110.168 28.1427C109.454 27.7036 109.097 27.054 109.097 26.194C109.097 24.9862 109.765 24.1446 111.101 23.6689C110.351 23.2845 109.802 22.7997 109.454 22.2141C109.106 21.6286 108.933 20.8874 108.933 19.9908C108.933 18.3074 109.5 17.0723 110.634 16.2854C111.787 15.4987 113.443 15.1052 115.602 15.1052C116.06 15.1052 116.572 15.1418 117.139 15.215C117.707 15.2699 118.118 15.3249 118.374 15.3797H123.48L123.37 18.5086H121.641C121.97 18.9295 122.135 19.4419 122.135 20.0458C122.135 21.3816 121.741 22.4429 120.955 23.2297C120.186 23.9981 118.969 24.3825 117.304 24.3825C117.066 24.3825 116.81 24.3734 116.535 24.355C116.261 24.3184 116.005 24.291 115.767 24.2726C115.364 24.3093 115.017 24.3825 114.724 24.4923C114.431 24.602 114.285 24.785 114.285 25.0412C114.285 25.2241 114.367 25.3523 114.532 25.4254C114.697 25.4803 114.925 25.5077 115.218 25.5077H118.21C119.546 25.5077 120.598 25.8189 121.366 26.441C122.135 27.0632 122.519 27.978 122.519 29.1858C122.519 30.4666 121.924 31.4547 120.735 32.15C119.546 32.8636 117.698 33.2205 115.191 33.2205ZM115.63 21.5554C116.435 21.5554 116.993 21.4181 117.304 21.1436C117.615 20.8692 117.771 20.4117 117.771 19.7713C117.771 19.1308 117.615 18.6642 117.304 18.3715C116.993 18.0788 116.435 17.9323 115.63 17.9323C114.88 17.9323 114.331 18.0788 113.983 18.3715C113.654 18.6459 113.489 19.1125 113.489 19.7713C113.489 20.3935 113.644 20.8509 113.955 21.1436C114.285 21.4181 114.843 21.5554 115.63 21.5554Z" fill="#FB8351"/>
<path d="M131.895 28.6642C129.296 28.6642 127.375 28.0878 126.13 26.935C124.904 25.7822 124.291 24.0988 124.291 21.8847C124.291 19.689 124.914 18.0147 126.158 16.8619C127.402 15.6908 129.315 15.1052 131.895 15.1052C134.493 15.1052 136.414 15.6908 137.658 16.8619C138.922 18.0147 139.552 19.689 139.552 21.8847C139.552 24.0988 138.93 25.7822 137.686 26.935C136.441 28.0878 134.511 28.6642 131.895 28.6642ZM131.895 24.9039C132.736 24.9039 133.34 24.6661 133.706 24.1902C134.09 23.7145 134.283 22.946 134.283 21.8847C134.283 20.8418 134.09 20.0823 133.706 19.6066C133.34 19.1125 132.736 18.8655 131.895 18.8655C131.072 18.8655 130.476 19.1125 130.11 19.6066C129.744 20.0823 129.562 20.8418 129.562 21.8847C129.562 22.946 129.744 23.7145 130.11 24.1902C130.476 24.6661 131.072 24.9039 131.895 24.9039Z" fill="#FB8351"/>
<path d="M141.82 13.6499V9.91711H147.392V13.6499H141.82ZM142.231 28.3892V19.1394H140.339L140.777 15.3792H147.392V28.3892H142.231Z" fill="white"/>
<path d="M149.867 34.3183V15.3797H154.342L154.588 16.4226C155.118 16.0018 155.695 15.6815 156.317 15.462C156.958 15.2241 157.698 15.1052 158.541 15.1052C160.48 15.1052 161.972 15.5992 163.015 16.5873C164.075 17.5571 164.606 19.2131 164.606 21.5553C164.606 23.8792 164.048 25.6449 162.932 26.8526C161.816 28.0604 160.279 28.6641 158.321 28.6641C157.022 28.6641 155.924 28.4172 155.027 27.9231V34.3183H149.867ZM157.003 24.9039C157.754 24.9039 158.331 24.6385 158.733 24.1079C159.136 23.5772 159.337 22.7539 159.337 21.6376C159.337 20.558 159.144 19.8261 158.76 19.4419C158.394 19.0576 157.827 18.8655 157.058 18.8655C156.29 18.8655 155.613 19.1216 155.027 19.634V24.2452C155.321 24.4647 155.613 24.6294 155.906 24.7392C156.198 24.8489 156.564 24.9039 157.003 24.9039Z" fill="white"/>
<path d="M171.483 28.6641C170.367 28.6641 169.315 28.5819 168.327 28.4172C167.357 28.2708 166.589 28.0786 166.021 27.8407V24.1353C166.661 24.4282 167.421 24.6568 168.299 24.8215C169.196 24.9862 169.956 25.0686 170.576 25.0686C171.236 25.0686 171.73 25.0503 172.059 25.0136C172.408 24.9771 172.58 24.8215 172.58 24.5471C172.58 24.2361 172.279 23.9981 171.675 23.8334C171.072 23.6687 170.312 23.4308 169.398 23.1198C168.207 22.6989 167.319 22.2049 166.734 21.6376C166.149 21.0704 165.857 20.247 165.857 19.1673C165.857 17.8682 166.369 16.871 167.394 16.1757C168.418 15.462 170.028 15.1052 172.223 15.1052C173.066 15.1052 173.935 15.1692 174.831 15.2973C175.727 15.4254 176.432 15.5718 176.945 15.7365V19.3596C176.395 19.1217 175.792 18.9478 175.134 18.8381C174.493 18.7282 173.908 18.6734 173.377 18.6734C172.792 18.6734 172.269 18.7008 171.812 18.7557C171.354 18.8105 171.126 18.9661 171.126 19.2223C171.126 19.515 171.383 19.7255 171.895 19.8535C172.425 19.9817 173.13 20.183 174.008 20.4574C174.997 20.7501 175.764 21.0704 176.314 21.4181C176.881 21.7658 177.275 22.1865 177.494 22.6806C177.731 23.1748 177.851 23.7876 177.851 24.5197C177.851 25.8371 177.31 26.8618 176.231 27.5937C175.169 28.3073 173.586 28.6641 171.483 28.6641Z" fill="white"/>
<path d="M184.501 28.6637C182.982 28.6637 181.793 28.2338 180.933 27.3737C180.074 26.5137 179.644 25.2511 179.644 23.586V15.3793H184.803V23.1743C184.803 24.3087 185.38 24.8761 186.532 24.8761C186.953 24.8761 187.365 24.7846 187.768 24.6016C188.17 24.4186 188.49 24.1898 188.728 23.9154V15.3793H193.888V28.3892H189.058L188.921 27.4011C188.409 27.7671 187.776 28.0691 187.027 28.3069C186.295 28.5448 185.453 28.6637 184.501 28.6637Z" fill="white"/>
<path d="M196.346 28.3896V15.3797H201.121L201.258 16.4226C201.826 16.0384 202.457 15.7274 203.152 15.4894C203.866 15.2332 204.644 15.1052 205.486 15.1052C206.326 15.1052 206.986 15.2241 207.461 15.462C207.938 15.6998 208.322 16.0475 208.614 16.5049C209.199 16.0842 209.859 15.7456 210.591 15.4894C211.34 15.2332 212.219 15.1052 213.226 15.1052C214.744 15.1052 215.86 15.5077 216.574 16.3128C217.288 17.0997 217.644 18.3074 217.644 19.9359V28.3896H212.566V20.5398C212.566 19.9542 212.448 19.5425 212.21 19.3046C211.973 19.0484 211.579 18.9204 211.029 18.9204C210.316 18.9204 209.73 19.1766 209.274 19.6888C209.309 19.9268 209.328 20.1555 209.328 20.3751C209.328 20.5763 209.328 20.8051 209.328 21.0613V28.3896H204.552V20.4574C204.552 19.9268 204.461 19.5425 204.278 19.3046C204.094 19.0484 203.747 18.9204 203.235 18.9204C202.887 18.9204 202.548 19.0119 202.219 19.1949C201.889 19.3778 201.596 19.5974 201.341 19.8535V28.3896H196.346Z" fill="white"/>
<path d="M138.011 50.7846C136.636 50.7846 135.493 50.5268 134.581 50.0115C133.683 49.4828 133.009 48.7493 132.56 47.8111C132.11 46.8597 131.886 45.7495 131.886 44.4809C131.886 43.0933 132.097 41.884 132.52 40.8532C132.942 39.8225 133.603 39.0295 134.502 38.4744C135.402 37.9062 136.563 37.6221 137.991 37.6221C138.731 37.6221 139.398 37.6749 139.993 37.7806C140.601 37.8864 141.169 38.0317 141.699 38.2168V39.6441C141.169 39.4458 140.608 39.2938 140.013 39.188C139.418 39.0692 138.791 39.0096 138.13 39.0096C136.98 39.0096 136.068 39.2277 135.394 39.6639C134.721 40.0999 134.238 40.7276 133.947 41.547C133.656 42.3664 133.51 43.3443 133.51 44.4809C133.51 46.0534 133.882 47.2693 134.621 48.1283C135.374 48.9741 136.558 49.397 138.169 49.397C138.764 49.397 139.365 49.3506 139.973 49.2582C140.594 49.1657 141.169 49.0204 141.699 48.8221V50.2692C141.182 50.4278 140.621 50.5532 140.013 50.6459C139.418 50.7384 138.751 50.7846 138.011 50.7846Z" fill="white"/>
<path d="M148.373 50.784C146.734 50.784 145.538 50.3677 144.785 49.5351C144.045 48.6894 143.676 47.4735 143.676 45.8877C143.676 44.315 144.053 43.1058 144.805 42.26C145.558 41.4142 146.749 40.9913 148.373 40.9913C149.999 40.9913 151.189 41.4142 151.941 42.26C152.695 43.1058 153.071 44.315 153.071 45.8877C153.071 47.4735 152.702 48.6894 151.961 49.5351C151.222 50.3677 150.026 50.784 148.373 50.784ZM148.373 49.3964C149.496 49.3964 150.29 49.1188 150.752 48.5638C151.215 47.9956 151.446 47.1035 151.446 45.8877C151.446 44.6718 151.209 43.7865 150.732 43.2314C150.27 42.6631 149.483 42.3789 148.373 42.3789C147.264 42.3789 146.47 42.6631 145.995 43.2314C145.533 43.7865 145.301 44.6718 145.301 45.8877C145.301 47.1035 145.533 47.9956 145.995 48.5638C146.458 49.1188 147.25 49.3964 148.373 49.3964Z" fill="white"/>
<path d="M155.058 50.5862V49.2185H156.525V50.5862H155.058Z" fill="white"/>
</svg>
